<?xml version="1.0" encoding="UTF-8"?>
<svg width="188px" height="32px" viewBox="0 0 188 32" version="1.1" xmlns="http://www.w3.org/2000/svg"
    xmlns:xlink="http://www.w3.org/1999/xlink">
    <!-- Generator: sketchtool 55.2 (78181) - https://sketchapp.com -->
    <title>A8F35EED-1992-4972-8346-FA4BEFB9A001</title>
    <desc>Created with sketchtool.</desc>
    <defs>
        <polygon id="path-1"
            points="0.000159863936 0.0711111111 49.6372755 0.0711111111 49.6372755 29.6958061 0.000159863936 29.6958061">
        </polygon>
        <polygon id="path-3"
            points="0.237973469 0.114650505 6.68400748 0.114650505 6.68400748 13.8989899 0.237973469 13.8989899">
        </polygon>
    </defs>
    <g id="Symbols" stroke="none" stroke-width="1" fill="none" fill-rule="evenodd">
        <g id="pata" transform="translate(-70.000000, -421.000000)">
            <g id="Group-63">
                <g transform="translate(70.000000, 421.000000)">
                    <g id="Group-3" transform="translate(0.000000, 0.252154)">
                        <mask id="mask-2" fill="white">
                            <use xlink:href="#path-1"></use>
                        </mask>
                        <g id="Clip-2"></g>
                        <path
                            d="M37.4687517,25.2904727 C37.5701054,25.0280081 37.7664184,24.8625131 38.0362687,24.8098263 L40.7808129,24.1908364 L40.5336633,21.7161697 L40.5247109,21.6628364 C40.457568,21.3383111 40.2532619,20.3511596 38.9785068,20.2457859 C34.0732415,19.8449778 32.9350102,19.1099475 31.7424252,18.331604 C31.741466,18.3280485 31.7392279,18.3232 31.7392279,18.3202909 L31.7312347,18.3232 L31.6538605,18.2727758 C30.3810238,17.4401293 29.1155408,17.4330182 28.9911667,17.4365737 C27.6013095,17.4375434 25.8431259,17.9931798 25.7002075,18.039402 C25.2762483,18.1657859 24.879466,18.2937859 24.4954728,18.4185535 C22.9591803,18.9176242 21.6323095,19.3507556 19.4028469,19.2832 L18.9961531,19.2712404 L18.8912823,19.6684929 C18.8113503,19.9749172 18.1875612,22.4657455 18.7896088,24.0663919 C18.2502279,24.4956444 18.2502279,24.993099 18.2534252,25.0593616 C18.2754864,25.6069172 18.147915,25.7417051 18.1053912,25.7856646 C17.8480102,26.0552404 16.9936973,26.0914424 16.2733503,26.0914424 L16.2653571,26.0914424 L16.0028605,26.0914424 L15.8490714,26.3054222 C15.4043299,26.922796 14.4464252,27.0666343 13.8331871,26.9095434 C13.563017,26.0794828 13.555983,25.4449778 13.8159218,25.0664727 C14.1228605,24.6197657 14.7751054,24.5712808 15.0395204,24.5712808 L15.1945884,24.5712808 C15.8455544,24.5712808 16.3756633,24.0321293 16.3756633,23.3701495 L16.3756633,18.9108364 C16.5742143,18.601503 16.7337585,18.2436848 16.8731599,17.8422303 C17.9490442,17.6680081 18.7736224,16.7451798 18.7736224,15.6348768 C18.7736224,15.2088566 18.649568,14.7973818 18.4247993,14.4450586 C19.420432,13.9608566 20.2709082,12.9714424 20.2709082,11.6752808 C20.2709082,10.3784727 19.6253776,9.78340202 19.0130986,9.39390707 C19.1851122,8.89612929 19.4703095,8.02113939 19.6640646,7.13936162 L20.5250918,4.02113939 C20.9106837,2.79835152 21.9171871,2.00869495 23.0905884,2.00869495 L38.2613571,2.00869495 C37.6193435,2.92214949 36.7071599,3.35431111 35.4435952,3.35431111 L26.2638878,3.35431111 L25.7836565,4.39253333 L34.0105748,4.39253333 C33.364085,5.43172525 32.4186497,5.92142222 31.0745136,5.92142222 L25.1099898,5.92142222 L24.6300782,6.95964444 L29.9522687,6.95964444 C29.3070578,7.96004848 28.3721735,8.43261414 27.0526565,8.43261414 L23.8010238,8.43261414 L23.3207925,9.47083636 L26.730051,9.47083636 C26.7610646,9.5131798 26.8461122,9.67059394 26.8461122,10.0914424 C26.8461122,10.7582707 26.2923435,11.301301 25.6094048,11.301301 C25.3756837,11.301301 25.1758537,11.2466747 24.8247925,11.1021899 C24.6742007,11.0378667 24.5242483,10.9732202 24.3733367,10.908897 L23.5816905,11.6264727 C23.7300442,11.6901495 23.877119,11.7538263 24.0254728,11.8168566 C24.7106497,12.1174626 25.0930442,12.2735838 25.6094048,12.2735838 C26.2373503,12.2735838 26.802949,12.010796 27.2042075,11.5918869 C27.7883503,11.6297051 28.7312279,11.7085737 29.6434116,11.7835636 C30.7333639,11.8747152 31.7628878,11.9600485 32.2965136,11.9888162 C32.5625272,12.0033616 32.8122347,12.0159677 33.0517109,12.027604 C33.5041259,12.0499071 33.9181735,12.0709172 34.3319014,12.1003313 C36.4015,15.4994424 37.4626769,15.9461495 41.4730238,16.4319677 C41.7617381,16.9552808 42.0213571,17.5086545 42.2701054,18.0652606 L42.2701054,24.6837657 L42.2713844,24.7215838 C42.294085,25.0260687 42.294085,25.1285333 42.2531599,25.1838061 C42.1137585,25.3683717 41.4947653,25.6295434 41.2792687,25.7190788 L37.8997449,27.0074828 C37.4514864,26.3933414 37.2906633,25.7530182 37.4687517,25.2904727 L37.4687517,25.2904727 Z M36.7378537,27.0876444 L30.0561803,27.0876444 L32.9193435,24.0321293 C33.4970918,23.4283313 33.6818946,22.7020283 33.4392211,21.9886545 C33.2988605,21.5771798 32.9212619,20.7884929 32.5283163,19.9797657 C33.664949,20.5140687 35.3876429,20.9943919 38.8950578,21.2794828 C39.3167789,21.3153616 39.4286837,21.4604929 39.5121327,21.8486949 L39.6659218,23.3788768 L37.8335612,23.7919677 C37.2190442,23.914796 36.7368946,24.3227152 36.5098878,24.9142303 C36.2589014,25.5661899 36.3442687,26.3338667 36.7378537,27.0876444 L36.7378537,27.0876444 Z M24.6860306,27.0876444 C24.499949,26.3526141 24.575085,25.7662707 24.9069626,25.3829172 C25.2250918,25.015402 25.7120374,24.9038869 26.0563844,24.9539879 L28.009602,25.3205333 L28.0585204,25.3292606 L28.3299694,25.3292606 L29.7105544,23.8249374 L29.7230238,23.8110384 C29.9593027,23.5337051 30.6754932,22.6923313 29.9433163,21.6198465 L28.0994456,18.5459071 C28.4038265,18.5025939 28.7117245,18.4751192 28.9946837,18.4751192 L29.0068333,18.4741495 C29.0161054,18.4757657 29.9407585,18.4612202 30.931915,19.0440081 C31.0665204,19.3349172 31.2535612,19.7182707 31.4610646,20.1442909 C31.8485748,20.9378263 32.3310442,21.9259475 32.4643707,22.3251394 C32.507534,22.4502303 32.6389422,22.8319677 32.1756565,23.3148768 L28.6401054,27.0876444 L24.6860306,27.0876444 Z M24.1316224,24.6999273 C23.7600986,25.1317657 23.3984864,25.8823111 23.6322075,27.0876444 L17.3415612,27.0876444 C18.0177857,27.0204121 18.5079286,26.8604121 18.8477993,26.5042101 C19.2596088,26.0707556 19.2960578,25.4789172 19.2819898,25.0558061 C19.2960578,25.0189576 19.3641599,24.8760889 19.6720578,24.7354828 L20.2136769,24.485301 L19.8888333,23.9797657 C19.3516905,23.1448566 19.5854116,21.3195636 19.7945136,20.3275636 L19.8431122,20.3275636 C21.9753776,20.3275636 23.3562823,19.8798869 24.8110442,19.406998 C25.1912007,19.2832 25.5819082,19.1561697 25.9956361,19.0343111 L26.0084252,19.0301091 C26.0164184,19.0272 26.4416565,18.890796 27.0206837,18.7537455 L29.0720578,22.171604 L29.0902823,22.199402 C29.2945884,22.4948364 29.3208061,22.6887758 28.9480034,23.1277253 L27.9207177,24.2483717 L26.2351122,23.9322505 L26.2204048,23.9296646 C25.4588129,23.8110384 24.6390306,24.1135838 24.1316224,24.6999273 L24.1316224,24.6999273 Z M12.9712007,24.4749576 C12.5334932,25.1104323 12.4797789,25.9876848 12.8090986,27.0876444 L11.7466429,27.0876444 L11.7466429,18.6978263 C12.127119,18.6393212 12.5366905,18.5287758 12.9178061,18.3529374 C12.8970238,18.7188364 12.8468265,19.0078061 12.7796837,19.3950384 C12.7633776,19.484897 12.7477109,19.5783111 12.7304456,19.6785131 L12.6290918,20.2839273 L13.2381735,20.2839273 C14.148119,20.2839273 14.8262619,20.1400889 15.3474184,19.867604 L15.3474184,23.3701495 C15.3474184,23.4600081 15.2793163,23.5327354 15.1945884,23.5327354 L15.0395204,23.5327354 C14.1362891,23.5327354 13.3826905,23.8760081 12.9712007,24.4749576 L12.9712007,24.4749576 Z M10.717119,26.1780687 L5.87356122,24.9038869 L1.02840476,26.1780687 L1.02840476,17.4184727 L5.87356122,16.1475232 L10.717119,17.4184727 L10.717119,26.1780687 Z M1.65123469,27.0876444 L5.87356122,25.9770182 L10.095568,27.0876444 L1.65123469,27.0876444 Z M3.33971769,14.1922909 C3.54146599,13.879402 4.00443197,13.609503 4.58377891,13.7116444 L5.02276531,13.7882505 L5.15928912,13.3612606 C5.19701701,13.2465131 5.24753401,13.1624727 5.31595578,13.0962101 C5.43873129,12.9792 5.62257483,12.923604 5.85757483,12.9300687 C6.4762483,12.9507556 7.25158844,13.3864727 7.88113265,14.0691394 C8.11037755,14.3173818 8.31340476,14.6053818 8.4950102,14.8966141 C8.52890136,14.9580283 8.56982653,15.0236444 8.60659524,15.081503 C8.65647279,15.1626343 8.69995578,15.2295434 8.70794898,15.2453818 C8.73064966,15.2851394 9.04206463,15.7577051 9.0200034,15.7884121 C9.23358163,15.4861899 9.44556122,15.1833212 9.65881973,14.8820687 C9.66457483,14.8733414 9.65562245,14.8458667 9.63707823,14.8064323 C9.58943878,14.7026747 9.4762551,14.5229576 9.40911224,14.4169374 C9.39312585,14.3910788 9.37745918,14.3652202 9.36019388,14.3390384 C9.36019388,14.337099 9.35763605,14.3341899 9.35667687,14.332897 C9.34996259,14.3219071 9.32278571,14.2769778 9.28505782,14.2181495 C9.21279932,14.1056646 9.11176531,13.943402 9.06604422,13.8538667 L10.406983,11.6878869 C10.7420578,11.7583515 11.0259762,11.7686949 11.1628197,11.7686949 L11.1957517,11.7686949 C13.0850238,11.7686949 15.0407993,10.666796 15.0407993,8.82178586 L15.0407993,8.77685657 C15.0165,8.27455354 14.9240986,7.7952 14.8489626,7.4102303 C14.8000442,7.15584646 14.7533639,6.91665455 14.7533639,6.79673535 C14.7533639,6.59471515 15.0350442,6.37006869 15.4375816,6.37006869 L16.0485816,6.37006869 L15.7716973,4.76877576 C16.6324048,4.12909899 17.1602755,3.08699798 17.1340578,2.09047273 C18.0599898,2.80901818 18.7144728,4.05540202 18.834051,5.38097778 C18.8695408,5.76594747 18.7944048,6.30445253 18.6709898,6.87075556 L18.6051259,7.10768485 L18.6163163,7.11091717 C18.3963435,8.03503838 18.0724592,8.98598788 17.9026837,9.43657374 L17.7440986,9.85289697 L18.1296905,10.0736646 C18.8180646,10.4686545 19.2423435,10.7569778 19.2423435,11.6752808 C19.2423435,12.7277253 18.3049014,13.5351596 17.3987925,13.7064727 L16.1601667,13.9401697 L17.2085544,14.647402 C17.5445884,14.8736646 17.7440986,15.2434424 17.7440986,15.6348768 C17.7440986,16.2965333 17.1887313,16.8343919 16.5048333,16.8343919 L16.1090102,16.8343919 L15.9983844,17.2009374 C15.6131122,18.4673616 15.1955476,19.0860283 13.8523707,19.2185535 C13.9153571,18.8335838 13.9575612,18.4634828 13.9575612,17.9395232 C13.9575612,17.8170182 13.9473299,17.4724525 13.942534,17.3615838 L13.8821054,16.1811394 L13.0613639,17.0244525 C12.7832007,17.3105131 12.2879422,17.5380687 11.7466429,17.6460283 L11.7466429,16.6165333 L5.87356122,15.0750384 L3.7835,15.6238869 C3.31701701,15.1519677 3.22333673,14.3726545 3.33971769,14.1922909 L3.33971769,14.1922909 Z M9.68184014,10.3784727 C9.69782653,10.3070384 9.7547381,10.2501495 9.81516667,10.2517657 L10.699534,10.2802101 C11.7782959,10.2423919 12.8765612,9.79342222 12.9999762,8.65855354 C12.9999762,7.88990707 12.4602755,7.14194747 11.6986837,7.14194747 C11.2916701,7.14194747 10.8331803,7.42639192 10.3180986,7.77095758 C9.98270408,7.99560404 9.71796939,8.17338182 9.51718027,8.17338182 C9.38033673,8.17338182 9.27130952,8.08190707 9.27130952,8.00659394 C9.27130952,7.99398788 9.27354762,7.98073535 9.27802381,7.96845253 L9.84266327,7.20368485 L9.35443878,6.87269495 C9.25052721,6.8032 9.0887449,6.67358384 9.07052041,6.57661414 C9.06252721,6.53071515 9.12743197,6.44893737 9.14789456,6.42469495 C9.34996259,6.18614949 9.58208503,5.89491717 9.81772449,5.53645253 C9.96096259,5.33249293 10.0444116,5.21968485 10.2867653,5.21968485 C10.5252823,5.21968485 10.7203163,5.41362424 10.7203163,5.6512 C10.7203163,5.80861414 10.8913707,5.93241212 11.1033503,5.93241212 C11.3156497,5.93241212 11.4102891,5.78081616 11.5410578,5.6512 C11.5410578,5.6512 12.0452687,5.18380606 11.7782959,4.96303838 C11.473915,4.7112404 10.2541531,5.2251798 10.5937041,4.09289697 L10.6781122,3.93128081 C10.8079218,3.75673535 11.3917449,3.31972525 12.598398,3.31972525 C12.825085,3.31972525 13.0667993,3.33653333 13.3142687,3.36788687 L13.4945952,3.39051313 L16.054017,1.79536162 C16.0760782,1.84934141 16.0837517,1.88812929 16.0837517,1.88812929 L16.0859898,1.90364444 C16.2196361,2.68683636 15.7317313,3.61903838 14.9506361,4.07188687 L14.6382619,4.25289697 L14.8400102,5.42008889 C14.1829694,5.62340202 13.7247993,6.15608889 13.7247993,6.79673535 C13.7247993,7.0171798 13.7759558,7.27867475 13.8402211,7.60934141 C13.9105612,7.97653333 13.9914524,8.39188687 14.0122347,8.81435152 C14.0122347,10.0284121 12.3554048,10.8316444 10.9527585,10.7860687 L10.9163095,10.7854222 C10.858119,10.7828364 9.96543878,10.711402 9.7467449,10.5365333 C9.70422109,10.5051798 9.67032993,10.433099 9.68184014,10.3784727 L9.68184014,10.3784727 Z M11.8025952,2.27536162 C11.9634184,2.06655354 12.2268741,1.83576566 12.5414864,1.62598788 C12.786398,1.46210909 13.107085,1.31568485 13.4191395,1.22485657 C13.9153571,1.08004848 14.485432,1.07067475 15.0746905,1.18574545 L13.2595952,2.31705859 C13.0335476,2.29378586 12.8116565,2.28150303 12.598398,2.28150303 C12.2892211,2.28150303 12.0062619,2.30671515 11.7479218,2.34905859 C11.7658265,2.3241697 11.7843707,2.29895758 11.8025952,2.27536162 L11.8025952,2.27536162 Z M39.4616156,2.00869495 L46.3066701,2.00869495 C45.6646565,2.92279596 44.7511939,3.35431111 43.4892279,3.35431111 L38.4352891,3.35431111 C38.8378265,2.99681616 39.1812143,2.5481697 39.4616156,2.00869495 L39.4616156,2.00869495 Z M39.1185476,5.92142222 L34.0658878,5.92142222 C34.5135068,5.52546263 34.8850306,5.01378586 35.1817381,4.39253333 L42.0558878,4.39253333 C41.4090782,5.43172525 40.4630034,5.92142222 39.1185476,5.92142222 L39.1185476,5.92142222 Z M35.0970102,8.43261414 L30.0446701,8.43261414 C30.4769422,8.04796768 30.8395136,7.55568485 31.1327041,6.95964444 L37.9975816,6.95964444 C37.3523707,7.95940202 36.4162075,8.43261414 35.0970102,8.43261414 L35.0970102,8.43261414 Z M36.2589014,12.3298263 C37.8588197,12.5964929 39.1697041,13.3244121 40.1538265,14.4938667 C40.3651667,14.7443717 40.5675544,15.0103919 40.7673844,15.2987152 C38.0749558,14.9412202 37.1381531,14.5449374 35.631915,12.234796 C35.8336633,12.261301 36.0398878,12.2923313 36.2589014,12.3298263 L36.2589014,12.3298263 Z M47.0020782,23.5324121 C47.1011939,23.6930586 47.1859218,23.8436848 47.2677721,23.9894626 C47.3681667,24.1688566 47.4663231,24.343402 47.5814252,24.5263515 C46.8022483,24.4765737 46.2120306,24.0405333 45.6656156,23.2156444 C46.1698265,23.0375434 46.7785884,23.1639273 47.0020782,23.5324121 L47.0020782,23.5324121 Z M40.6008061,27.0876444 L41.6511122,26.6865131 L41.6658197,26.6813414 C43.1573503,26.0571798 43.3693299,25.6676848 43.2986701,24.6650182 L43.2986701,20.6136242 C44.4330646,23.5256242 45.5051122,25.5729778 47.7032415,25.5723313 C48.0018673,25.5723313 48.3212755,25.5348364 48.6656224,25.4566141 L49.5231327,25.2597657 L48.9322755,24.6023111 C48.5562755,24.1821091 48.3737109,23.8559677 48.1626905,23.4790788 C48.0763639,23.3245737 47.9862007,23.1642505 47.8787721,22.9874424 C47.3646497,22.1438061 46.1400918,21.8574222 45.1489354,22.3063919 C44.7000374,21.403604 44.2473027,20.2267152 43.7024864,18.7741091 L43.5835476,18.4974222 C43.4892279,18.281503 43.3955476,18.0626747 43.2986701,17.8438465 L43.2986701,17.8079677 L43.2839626,17.8079677 C42.9453707,17.0406141 42.5859966,16.2706747 42.1550034,15.5495434 C41.7639762,14.8943515 41.3649558,14.3293414 40.9387585,13.8225131 C39.7915748,12.4604121 38.2738265,11.6138667 36.4264388,11.3051798 C35.1497653,11.0924929 34.246534,11.0478869 33.1006293,10.9906747 C32.8646701,10.9796848 32.6159218,10.9664323 32.3515068,10.9525333 C31.8335476,10.9237657 30.7630986,10.8348768 29.7278197,10.7482505 C29.0298537,10.6913616 28.313983,10.6318869 27.7506224,10.5895434 C27.7883503,10.4295434 27.811051,10.2637253 27.811051,10.0914424 C27.811051,9.85968485 27.7902687,9.65443232 27.7506224,9.47083636 L35.0970102,9.47083636 C36.9910782,9.47083636 38.3617517,8.62396768 39.178017,6.95770505 C41.0602551,6.94025051 42.4216565,6.0772202 43.2257721,4.39253333 L43.4892279,4.39253333 C45.4491599,4.39253333 46.8505272,3.48812929 47.6533639,1.7042101 L47.9849218,0.970149495 L23.0905884,0.970149495 C21.4555,0.970149495 20.0634048,2.04909899 19.5422483,3.71762424 L19.5262619,3.77548283 C19.101983,2.58275556 18.3279218,1.56942222 17.3348469,0.973058586 C15.9552211,0.14299798 14.3837585,-0.135951515 13.132983,0.227361616 C12.7192551,0.348573737 12.3077653,0.537018182 11.9736497,0.760048485 C11.6858946,0.95140202 11.2836769,1.25847273 10.9917653,1.63665455 C10.6736361,2.04974545 10.3657381,2.54881616 10.1400102,3.01556364 C9.99645238,3.13483636 9.8855068,3.25701818 9.80813265,3.37499798 L9.51078571,3.94065455 L9.49447959,3.97297778 C9.13798299,4.78687677 8.70315306,5.35091717 8.36679932,5.74978586 C8.03044558,6.14509899 8.0135,6.52037172 8.05922109,6.76570505 C8.10813946,7.03463434 8.2507381,7.25346263 8.40228912,7.41895758 L8.39429592,7.43447273 C8.29518027,7.60707879 8.2427449,7.80489697 8.2427449,8.00659394 C8.2427449,8.67051313 8.81409864,9.17281616 9.51718027,9.17281616 C10.0284252,9.17281616 10.4456701,8.93200808 10.8878537,8.63625051 C11.0672211,8.51568485 11.5423367,8.19697778 11.6986837,8.17952323 C11.8949966,8.17952323 12.0750034,8.3602101 12.0750034,8.55867475 C12.0750034,9.10299798 11.3805544,9.3961697 10.8833776,9.43237172 L9.87303741,9.54130101 C9.14469728,9.61079596 8.79907143,10.0006141 8.79907143,10.3497051 C8.79907143,10.6991192 8.96660884,10.8966141 9.08203061,11.0136242 L9.15716667,11.0905535 L9.41358844,11.3219879 L8.34058163,13.0671192 C7.5767517,12.3514828 6.68151361,11.9183515 5.88922789,11.8931394 C5.37638435,11.8756848 4.93356122,12.0324525 4.6077585,12.3437253 C4.51279932,12.4345535 4.42967007,12.5373414 4.3590102,12.6514424 L4.34110544,12.6514424 C3.4935068,12.6514424 2.81184694,13.1097859 2.47869048,13.6250182 C2.11547959,14.1874424 2.24656803,15.1623111 2.70665646,15.9057455 L0.000159863936,16.6165333 L0.000159863936,29.6958061 L49.6372755,29.6958061 L49.6372755,27.0876444 L40.6008061,27.0876444 Z"
                            id="Fill-1" fill="#FFFFFF" mask="url(#mask-2)"></path>
                    </g>

                </g>
            </g>
        </g>
    </g>
</svg>